<svg width="85" height="85" viewBox="0 0 85 85" fill="none" xmlns="http://www.w3.org/2000/svg">
<path d="M0 42.5C0 19.0279 19.0279 0 42.5 0V0C65.9721 0 85 19.0279 85 42.5V42.5C85 65.9721 65.9721 85 42.5 85V85C19.0279 85 0 65.9721 0 42.5V42.5Z" fill="#F6F6F6"/>
<g clip-path="url(#clip0_19543_5111)">
<path d="M62.0264 40.436C60.0785 38.4881 57.6107 37.0655 54.8456 36.3942V26.7368C54.8456 26.4584 54.6824 26.1992 54.404 26.0744L36.9512 18.5576C36.7784 18.4808 36.5768 18.4808 36.3848 18.5576L18.9704 26.0648C18.692 26.1704 18.5 26.4296 18.5 26.7368V42.5C18.5 48.8936 20.42 53.8568 23.2232 57.6008C26.9 62.4968 32.084 65.2904 36.4712 66.4712C36.596 66.5096 36.7208 66.5096 36.8552 66.4712C37.9016 66.1928 38.9864 65.828 40.0904 65.3576C41.0006 64.9663 41.9258 64.5144 42.8394 63.9891C45.2448 65.5761 48.129 66.5 51.2264 66.5C55.4504 66.5 59.2616 64.7912 62.0264 62.0264C64.7912 59.2616 66.5 55.4504 66.5 51.2264C66.5 47.012 64.7912 43.1912 62.0264 40.436ZM39.524 64.0328C38.5544 64.4456 37.5944 64.7816 36.6728 65.0312C32.5736 63.8984 27.7736 61.2776 24.3752 56.7368C21.7448 53.2232 19.94 48.548 19.94 42.5V27.2168L36.6728 20.0072L53.4056 27.2168V36.1175C52.694 36.016 51.9667 35.9624 51.2264 35.9624C50.9169 35.9624 50.6098 35.9727 50.3048 35.9909V29.7224C50.3048 29.4152 50.1128 29.156 49.844 29.0504L36.9512 23.5016C36.7688 23.4152 36.5576 23.4248 36.3848 23.5016L23.4728 29.06C23.1944 29.1752 23.0312 29.444 23.0312 29.7224V42.5C23.0312 45.1304 23.4152 47.6744 24.2696 50.0552C25.0568 52.2728 26.2664 54.3464 27.9464 56.2088C29.0696 57.4472 30.3848 58.5416 31.8152 59.4728C33.2648 60.4136 34.8296 61.1816 36.4424 61.7192C36.596 61.7768 36.7592 61.7768 36.9032 61.7192C37.3832 61.556 37.8728 61.3736 38.3432 61.172C38.663 61.0377 38.9782 60.894 39.2895 60.7426C39.6478 61.1916 40.0302 61.6206 40.436 62.0264C40.7951 62.3868 41.1728 62.7287 41.5666 63.0518C40.8829 63.42 40.1988 63.7455 39.524 64.0328ZM48.8648 36.1444C45.5947 36.6524 42.6662 38.1981 40.436 40.436C37.6712 43.1912 35.9624 47.012 35.9624 51.2264C35.9624 54.3046 36.8706 57.163 38.4329 59.5575C38.2182 59.6571 38.0023 59.7533 37.7864 59.8472C37.4216 60.0008 37.0472 60.1544 36.6728 60.2792C35.252 59.78 33.8696 59.0984 32.5928 58.2728C31.2776 57.4088 30.0584 56.3912 29.012 55.2392C27.4664 53.5304 26.3528 51.62 25.6232 49.5656C24.8264 47.3576 24.4712 44.9768 24.4712 42.5V30.1928L36.6728 24.9416L48.8648 30.1928V36.1444ZM61.0088 61.0088C58.5032 63.5144 55.0472 65.06 51.2264 65.06C47.4152 65.06 43.9496 63.5144 41.4536 61.0088C38.948 58.5032 37.4024 55.0472 37.4024 51.2264C37.4024 47.4152 38.948 43.9496 41.4536 41.4536C43.9496 38.948 47.4152 37.4024 51.2264 37.4024C55.0472 37.4024 58.5032 38.948 61.0088 41.4536C63.5144 43.9496 65.06 47.4152 65.06 51.2264C65.06 55.0472 63.5144 58.5032 61.0088 61.0088Z" fill="black"/>
<path d="M58.7148 41.9814C58.1388 41.9814 57.5628 42.2022 57.1212 42.6438L52.7724 46.9926L41.7036 58.0614C41.6172 58.1478 41.55 58.263 41.5116 58.3878C41.4156 58.7718 41.6364 59.1654 42.0204 59.271C43.8732 59.7606 45.6684 59.799 47.4636 59.2614C49.23 58.7238 50.9772 57.6294 52.7436 55.8534L57.15 51.447L57.1884 51.4086C57.4668 51.1302 57.4668 50.679 57.1884 50.391L56.4684 49.671L60.3084 45.831L60.3564 45.783C60.7692 45.351 60.9708 44.7942 60.9708 44.2374C60.9708 43.6614 60.75 43.0854 60.3084 42.6438C59.8764 42.2022 59.2908 41.9814 58.7148 41.9814ZM51.726 54.8358C50.1324 56.4294 48.5868 57.4086 47.0412 57.879C45.9372 58.215 44.814 58.2918 43.662 58.1382L53.2812 48.519L54.942 50.1798L55.662 50.8998L51.726 54.8358ZM59.3196 44.7846L55.4508 48.6534L54.2988 47.5014L58.1388 43.6614C58.2924 43.4982 58.5036 43.4214 58.7148 43.4214C58.926 43.4214 59.1372 43.4982 59.2908 43.6614C59.454 43.815 59.5308 44.0262 59.5308 44.2374C59.5308 44.439 59.4636 44.631 59.3196 44.7846Z" fill="black"/>
</g>
<defs>
<clipPath id="clip0_19543_5111">
<rect width="48" height="48" fill="white" transform="translate(18.5 18.5)"/>
</clipPath>
</defs>
</svg>
