<svg width="48" height="48" viewBox="0 0 48 48" fill="none" xmlns="http://www.w3.org/2000/svg">
<path d="M37.33 41.9998C37.5976 38.7865 37.6531 28.5447 28.2659 23.9994C32.1701 22.1065 34.8701 19.0072 36.3042 14.7654C36.4368 14.3728 36.2262 13.9473 35.834 13.8147C35.4396 13.6818 35.0162 13.8927 34.8833 14.2849C33.4067 18.6524 30.4485 21.6842 26.0902 23.2963C25.7961 23.4054 25.6006 23.6859 25.6006 23.9998C25.6006 24.3136 25.7961 24.5941 26.0902 24.7033C36.2983 28.48 36.0929 39.0505 35.8243 41.9998H33.5623C32.7027 33.4001 26.712 30.8924 24.7499 30.3V25.6334C24.7499 25.2192 24.4141 24.8834 23.9999 24.8834C23.5857 24.8834 23.2499 25.2192 23.2499 25.6334V30.3C21.2877 30.8924 15.2971 33.4001 14.4375 41.9998H12.1768C12.0834 40.9618 11.9897 38.8339 12.4448 36.3349C12.5192 35.9273 12.2489 35.5369 11.8413 35.4625C11.4326 35.3908 11.043 35.6588 10.969 36.0661C10.5042 38.6178 10.5753 40.8306 10.6704 41.9998C9.40199 41.956 8.33628 42.9786 8.33887 44.2498C8.33887 45.4905 9.34815 46.4998 10.5889 46.4998H37.4109C38.6516 46.4998 39.6609 45.4905 39.6609 44.2498C39.6609 41.9998 37.33 41.9998 37.33 41.9998ZM23.9995 31.6444C25.0161 31.8733 31.1567 33.5993 32.0595 41.9998H15.9403C16.8434 33.5952 22.9895 31.8718 23.9995 31.6444ZM37.4109 44.9998H10.5889C10.1754 44.9998 9.83887 44.6632 9.83887 44.2498C9.83887 43.8363 10.1754 43.4998 10.5889 43.4998H37.4109C37.8243 43.4998 38.1609 43.8363 38.1609 44.2498C38.1609 44.6632 37.8243 44.9998 37.4109 44.9998Z" fill="black"/>
<path d="M10.6728 6C10.4565 8.83045 10.3218 19.4086 19.7368 23.9989C15.7748 25.9186 13.0542 29.0775 11.637 33.4105C11.5084 33.8046 11.723 34.2279 12.1167 34.3568C12.5001 34.4853 12.9348 34.2742 13.063 33.8771C14.5194 29.4229 17.4956 26.3364 21.9096 24.7035C22.2036 24.5944 22.3992 24.3138 22.3992 24C22.3992 23.6862 22.2036 23.4056 21.9096 23.2965C11.7021 19.5202 11.9043 8.96447 12.1755 6H35.8236C35.9119 7.01038 36.0086 9.17743 35.5542 11.6689C35.4799 12.0762 35.7501 12.4669 36.1577 12.5413C36.5557 12.6162 36.9577 12.3479 37.03 11.9377C37.496 9.38205 37.4268 7.18039 37.3297 6C38.598 6.04361 39.6635 5.021 39.6609 3.75C39.6609 2.50928 38.6516 1.5 37.4109 1.5H10.5889C9.34814 1.5 8.33887 2.50928 8.33887 3.75C8.33887 6.08539 10.6728 6 10.6728 6ZM10.5889 3H37.4109C37.8243 3 38.1609 3.33655 38.1609 3.75C38.1609 4.16345 37.8243 4.5 37.4109 4.5H10.5889C10.1754 4.5 9.83887 4.16345 9.83887 3.75C9.83887 3.33655 10.1754 3 10.5889 3Z" fill="black"/>
<path d="M30.8813 12.0551C30.9491 11.4343 31.1058 10.7847 31.3475 10.124L31.921 8.55372C32.003 8.32923 31.973 8.07912 31.8404 7.88026C31.7079 7.68141 31.4885 7.55763 31.2497 7.54701C27.0698 7.35841 23.9717 8.4639 21.9939 10.7962C20.5901 10.3333 18.8721 10.0796 16.75 10.1716C16.5112 10.1823 16.2919 10.306 16.1593 10.5049C16.0267 10.7038 15.9967 10.9539 16.0787 11.1784L16.6526 12.749C16.8943 13.4093 17.051 14.0586 17.1184 14.6793C17.2568 15.9475 17.7798 18.2872 19.7262 19.7092C20.7845 20.4823 22.1007 20.8701 23.6571 20.8701C24.3778 20.8701 25.1501 20.7866 25.9719 20.62C27.4752 20.3231 28.3638 18.7563 27.9188 17.31C30.1337 15.9428 30.7273 13.4642 30.8813 12.0551ZM20.6109 18.4978C19.1296 17.4157 18.7213 15.5388 18.6096 14.5171C18.529 13.7759 18.3445 13.0076 18.0614 12.2338L17.8494 11.6533C24.2834 11.7386 26.0355 15.4918 26.5008 17.8471C24.5858 15.1685 21.6839 13.6262 21.5448 13.5532C21.1793 13.3617 20.7256 13.5027 20.5329 13.8693C20.3407 14.2355 20.482 14.6889 20.8483 14.8815C20.8808 14.8986 23.9095 16.5149 25.5806 19.1658C23.4598 19.58 21.7868 19.3565 20.6109 18.4978ZM27.4478 15.813C26.8402 14.3109 25.6722 12.5622 23.4467 11.4079C24.9592 9.86466 27.2046 9.06409 30.1507 9.02833C29.7946 9.94527 29.4774 10.9733 29.3901 11.8921C29.2755 12.9435 28.8657 14.7324 27.4478 15.813Z" fill="black"/>
</svg>
